<svg width="2000" height="1400" xmlns="http://www.w3.org/2000/svg"><defs><linearGradient id="a" gradientTransform="rotate(90)"><stop offset="5%" stop-color="#dac7fa"/><stop offset="95%" stop-color="#e3d5fb"/></linearGradient><linearGradient id="b" gradientTransform="rotate(90)"><stop offset="5%" stop-color="#bfa2f5"/><stop offset="95%" stop-color="#cfb9f7"/></linearGradient><linearGradient id="c" gradientTransform="rotate(90)"><stop offset="5%" stop-color="#a280dd"/><stop offset="95%" stop-color="#b99fe5"/></linearGradient><linearGradient id="d" gradientTransform="rotate(90)"><stop offset="5%" stop-color="#8163b4"/><stop offset="95%" stop-color="#a08ac6"/></linearGradient><linearGradient id="e" gradientTransform="rotate(90)"><stop offset="5%" stop-color="#61458a"/><stop offset="95%" stop-color="#8873a7"/></linearGradient></defs><path fill="#f5ecff" d="M0 0h2000v1400H0z"/><path d="M0 233c56.813 3.67 113.625 7.341 175 1s127.311-22.695 190-23c62.689-.305 122.13 15.439 179 28 56.87 12.561 111.171 21.94 168 22 56.829.06 116.187-9.201 182-19s138.082-20.136 203-14c64.918 6.136 122.483 28.745 183 33 60.517 4.255 123.984-9.843 183-20 59.016-10.157 113.582-16.372 166-8 52.418 8.372 102.69 31.33 174 33 71.31 1.67 163.66-17.952 200-27 36.34-9.048 16.67-7.524 37-6l-40 1167H0Z" fill="url(#a)"/><path d="M0 466c63.116-18.847 126.232-37.694 191-26 64.768 11.694 131.188 53.928 188 57 56.812 3.072 104.014-33.017 159-35 54.986-1.983 117.755 30.14 179 34 61.245 3.86 120.967-20.544 184-31s129.379-6.965 192 4c62.621 10.965 121.519 29.405 182 19 60.481-10.405 122.546-49.656 183-48 60.454 1.656 119.297 44.217 179 59 59.703 14.783 120.266 1.788 189-12s145.638-28.368 176-32c30.362-3.632 14.18 3.684 38 11l-40 934H0Z" fill="url(#b)"/><path d="M0 700c51.832 2.38 103.664 4.76 167-2s138.177-22.66 202-30c63.823-7.34 116.628-6.117 173-2s116.31 11.13 180 18c63.69 6.87 131.134 13.6 195 16 63.866 2.4 124.156.468 183-6 58.844-6.468 116.244-17.473 171-7 54.756 10.473 106.868 42.422 172 36 65.132-6.422 143.283-51.216 203-63 59.717-11.784 101 9.443 163 12 62 2.557 144.714-13.555 180-12 35.286 1.555 23.143 20.778 51 40l-40 700H0Z" fill="url(#c)"/><path d="M0 933c55.806.25 111.612.5 176 10s137.357 28.252 198 30c60.643 1.748 108.96-13.506 165-22 56.04-8.494 119.806-10.227 184-2s128.818 26.415 188 25c59.182-1.415 112.92-22.432 177-28 64.08-5.568 138.498 4.313 197 13 58.502 8.687 101.088 16.178 160 13 58.912-3.178 134.152-17.027 198-18 63.848-.973 116.305 10.93 184 14 67.695 3.07 150.627-2.694 182-10 31.373-7.306 11.186-16.153 31-25l-40 467H0Z" fill="url(#d)"/><path d="M0 1166c55.568-18.333 111.135-36.667 168-36 56.865.667 115.027 20.333 181 33 65.973 12.667 139.758 18.335 200 6 60.242-12.335 106.94-42.674 165-38 58.06 4.674 127.483 44.363 191 59 63.517 14.637 121.129 4.224 185-2 63.871-6.224 134.003-8.26 190-10 55.997-1.74 97.861-3.184 161 5 63.139 8.184 147.553 25.998 209 23 61.447-2.998 99.928-26.807 163-34 63.072-7.193 150.735 2.23 186 4 35.265 1.77 18.133-4.115 41-10l-40 234H0Z" fill="url(#e)"/></svg>